<!-- Generated by IcoMoon.io -->
<svg version="1.1" xmlns="http://www.w3.org/2000/svg" width="16" height="28" viewBox="0 0 16 28">
<title>dollar</title>
<path fill="#fff" d="M15.281 18.516c0 3.187-2.281 5.703-5.594 6.25v2.734c0 0.281-0.219 0.5-0.5 0.5h-2.109c-0.266 0-0.5-0.219-0.5-0.5v-2.734c-3.656-0.516-5.656-2.703-5.734-2.797-0.156-0.187-0.172-0.453-0.031-0.641l1.609-2.109c0.078-0.109 0.219-0.172 0.359-0.187s0.281 0.031 0.375 0.141c0.031 0.016 2.219 2.109 4.984 2.109 1.531 0 3.187-0.812 3.187-2.578 0-1.5-1.844-2.234-3.953-3.078-2.812-1.109-6.312-2.516-6.312-6.438 0-2.875 2.25-5.25 5.516-5.875v-2.812c0-0.281 0.234-0.5 0.5-0.5h2.109c0.281 0 0.5 0.219 0.5 0.5v2.75c3.172 0.359 4.859 2.078 4.922 2.141 0.156 0.172 0.187 0.406 0.078 0.594l-1.266 2.281c-0.078 0.141-0.203 0.234-0.359 0.25-0.156 0.031-0.297-0.016-0.422-0.109-0.016-0.016-1.906-1.687-4.25-1.687-1.984 0-3.359 0.984-3.359 2.406 0 1.656 1.906 2.391 4.125 3.25 2.875 1.109 6.125 2.375 6.125 6.141z"></path>
</svg>
