<?xml version="1.0" encoding="utf-8"?>
<!-- Generator: Adobe Illustrator 18.0.0, SVG Export Plug-In . SVG Version: 6.00 Build 0)  -->
<!DOCTYPE svg PUBLIC "-//W3C//DTD SVG 1.1//EN" "http://www.w3.org/Graphics/SVG/1.1/DTD/svg11.dtd">
<svg version="1.1" id="图层_1" xmlns="http://www.w3.org/2000/svg" stroke="#ffffff" fill="#ffffff" xmlns:xlink="http://www.w3.org/1999/xlink" x="0px" y="0px"
	 width="24" height="24" viewBox="10 10 20 20" enable-background="new 0 0 24 24" xml:space="preserve">
<g>
	<g>
		<g>
			<path d="M20,24.2c-1.6,0-3.2-0.4-3.2-3.1c0-2.5,2.7-6,2.8-6.2c0.2-0.2,0.6-0.2,0.8,0c0.1,0.1,2.8,3.7,2.8,6.2
				C23.2,23.8,21.6,24.2,20,24.2z M20,16c-0.7,1.1-2.2,3.4-2.2,5c0,2,0.9,2.1,2.2,2.1s2.2-0.1,2.2-2.1C22.2,19.4,20.7,17.1,20,16z"
				/>
		</g>
		<g>
			<g>
				<path d="M18.7,23.9c-0.3,0.2-0.7,0.3-1,0.3c-0.7,0-1.5-0.4-2.2-1.1c-1.8-1.8-2.4-6.2-2.4-6.4c0-0.2,0-0.3,0.1-0.4
					c0.1-0.1,0.3-0.2,0.4-0.1c0.1,0,2.8,0.4,4.8,1.4l-0.4,0.9c-1.3-0.6-2.9-1-3.8-1.2c0.2,1.3,0.8,4,2,5.1c1,1,1.6,0.9,2.1,0.7
					L18.7,23.9z"/>
			</g>
			<g>
				<path d="M21.7,23c0.5,0.2,1.1,0.3,2.1-0.7c1.2-1.2,1.8-3.8,2-5.1c-0.9,0.2-2.6,0.5-3.8,1.2l-0.4-0.9c2-1,4.7-1.3,4.8-1.4
					c0.2,0,0.3,0,0.4,0.1c0.1,0.1,0.2,0.3,0.1,0.4c0,0.2-0.6,4.6-2.4,6.4c-0.8,0.8-1.5,1.1-2.2,1.1c-0.3,0-0.7-0.1-1-0.3L21.7,23z"
					/>
			</g>
		</g>
		<g>
			<g>
				<path d="M25.7,19.8c1.6,0.8,3,1.9,3.1,1.9c0.1,0.1,0.2,0.2,0.2,0.4s-0.1,0.3-0.2,0.4c-0.1,0.1-3.7,2.8-6.2,2.8
					c-1.5,0-2.4-0.5-2.9-1.5l0.9-0.4c0.2,0.4,0.5,0.9,1.9,0.9c1.6,0,4-1.5,5-2.2c-0.5-0.4-1.4-0.9-2.4-1.4L25.7,19.8z"/>
			</g>
			<g>
				<path d="M14.7,20.7c-0.9,0.5-1.8,1-2.4,1.4c1.1,0.7,3.4,2.2,5,2.2c1.4,0,1.8-0.5,1.9-0.9l0.9,0.4c-0.4,1-1.4,1.5-2.9,1.5
					c-2.5,0-6-2.7-6.2-2.8c-0.1-0.1-0.2-0.2-0.2-0.4s0.1-0.3,0.2-0.4c0.1,0,1.4-1.1,3.1-1.9L14.7,20.7z"/>
			</g>
			<g>
				<path d="M20,24.2l-0.2,0c-0.3,0-0.5-0.2-0.5-0.5c0-0.3,0.2-0.5,0.5-0.5c0,0,0.1,0,0.1,0l0.1,0l0.1,0c0,0,0.1,0,0.1,0
					c0.3,0,0.5,0.2,0.5,0.5c0,0.3-0.2,0.5-0.5,0.5L20,24.2z"/>
			</g>
		</g>
	</g>
</g>
</svg>
