<?xml version="1.0" encoding="iso-8859-1"?>
<!-- Generator: Adobe Illustrator 19.0.0, SVG Export Plug-In . SVG Version: 6.00 Build 0)  -->
<svg version="1.1" id="Layer_1" xmlns="http://www.w3.org/2000/svg" xmlns:xlink="http://www.w3.org/1999/xlink" x="0px" y="0px"
	 width="24" height="24" viewBox="0 0 511.999 511.999" style="enable-background:new 0 0 511.999 511.999;" xml:space="preserve">
<g>
	<g>
		<path fill="#ffffff" d="M509.538,206.419c-3.726-7.151-10.941-11.417-18.908-11.136l-57.758,2.055l-1.994-27.063
			c-0.601-8.157-5.613-15.068-13.079-18.036c-7.27-2.89-15.406-1.385-21.221,3.934l-47.361,43.297l22.952-94.853
			c1.921-7.933-0.721-16.093-6.895-21.295c-5.943-5.008-14.048-6.209-21.149-3.141l-35.719,15.44l-33.62-76.129
			c-3.377-7.644-10.575-12.391-18.79-12.391c-8.212,0-15.411,4.749-18.785,12.392l-33.62,76.128l-35.72-15.44
			c-7.101-3.07-15.205-1.864-21.148,3.141c-6.174,5.201-8.817,13.36-6.897,21.295l22.953,94.856l-47.362-43.3
			c-5.816-5.318-13.948-6.824-21.222-3.934c-7.467,2.968-12.479,9.879-13.079,18.036l-1.994,27.063l-57.757-2.055
			c-7.926-0.279-15.182,3.983-18.909,11.136c-3.852,7.392-3.142,16.102,1.851,22.734l36.396,48.328l-22.082,20.008
			c-5.389,4.884-7.865,12.13-6.62,19.382c1.228,7.161,5.896,13.081,12.482,15.838l89.641,37.519l-10.894,19.513
			c-3.254,5.827-3.585,12.96-0.886,19.079c2.67,6.05,7.834,10.374,14.169,11.861l127.704,29.984v0.725v41.73
			c0,6.505,5.274,11.777,11.777,11.777c6.505,0,11.777-5.273,11.777-11.777v-41.73v-0.731l127.678-29.978
			c6.335-1.487,11.501-5.811,14.169-11.861c2.699-6.118,2.368-13.251-0.886-19.079l-10.888-19.505l89.659-37.527
			c6.587-2.757,11.255-8.678,12.483-15.838c1.245-7.253-1.231-14.498-6.62-19.381l-22.082-20.009l36.395-48.326
			C512.68,222.521,513.39,213.809,509.538,206.419z M451.249,264.935c-6.568,8.721-5.402,21.275,2.657,28.578l20.93,18.964
			l-97.72,40.901c-2.348,0.853-4.411,2.446-5.831,4.611c-2.406,3.669-2.575,8.37-0.436,12.201l15.829,28.354l-118.902,27.917
			v-64.877l105.931-62.223c5.61-3.294,7.485-10.511,4.192-16.121c-3.294-5.607-10.508-7.486-16.121-4.19l-94.002,55.215V190.898
			c0-6.505-5.273-11.777-11.777-11.777c-6.503,0-11.777,5.273-11.777,11.777v143.708l-94.581-55.555
			c-5.608-3.294-12.827-1.418-16.12,4.19c-3.295,5.608-1.419,12.826,4.19,16.121l106.511,62.563v64.543l-118.927-27.923
			l15.83-28.353c2.62-4.693,1.728-10.566-2.166-14.271c-1.127-1.073-2.424-1.886-3.805-2.429l-97.991-41.014l20.931-18.964
			c8.058-7.303,9.224-19.856,2.656-28.578l-34.577-45.913l54.99,1.956c11.133,0.402,20.437-8.149,21.272-19.455l1.747-23.712
			l71.173,65.068c4.281,3.915,10.773,4.126,15.301,0.503c3.701-2.96,5.189-7.759,4.043-12.163l-30.75-127.075l33.202,14.352
			c10.23,4.424,22.262-0.391,26.824-10.726l32.024-72.515l32.022,72.514c4.564,10.336,16.597,15.148,26.826,10.727l33.201-14.352
			l-30.721,126.959c-1.086,4.016,0.001,8.468,3.175,11.543c4.473,4.332,11.545,4.434,16.14,0.232l71.174-65.068l1.747,23.714
			c0.835,11.303,10.16,19.84,21.27,19.453l54.991-1.956L451.249,264.935z"/>
	</g>
</g>
<g>
</g>
<g>
</g>
<g>
</g>
<g>
</g>
<g>
</g>
<g>
</g>
<g>
</g>
<g>
</g>
<g>
</g>
<g>
</g>
<g>
</g>
<g>
</g>
<g>
</g>
<g>
</g>
<g>
</g>
</svg>
