<?xml version="1.0" encoding="UTF-8" standalone="no"?>
<!-- Generator: Adobe Illustrator 16.0.0, SVG Export Plug-In . SVG Version: 6.00 Build 0)  -->

<svg
   xmlns:dc="http://purl.org/dc/elements/1.1/"
   xmlns:cc="http://creativecommons.org/ns#"
   xmlns:rdf="http://www.w3.org/1999/02/22-rdf-syntax-ns#"
   xmlns:svg="http://www.w3.org/2000/svg"
   xmlns="http://www.w3.org/2000/svg"
   xmlns:sodipodi="http://sodipodi.sourceforge.net/DTD/sodipodi-0.dtd"
   xmlns:inkscape="http://www.inkscape.org/namespaces/inkscape"
   version="1.1"
   id="Capa_1"
   x="0px"
   y="0px"
   width="24"
   height="24"
   stroke="#ffffff"
   stroke-width="2"
   viewBox="0 0 612 612"
   xml:space="preserve"
   inkscape:version="0.91 r13725"
   sodipodi:docname="tumblr-grey-thick.svg"><metadata
     id="metadata73"><rdf:RDF><cc:Work
         rdf:about=""><dc:format>image/svg+xml</dc:format><dc:type
           rdf:resource="http://purl.org/dc/dcmitype/StillImage" /><dc:title></dc:title></cc:Work></rdf:RDF></metadata><defs
     id="defs71" /><sodipodi:namedview
     pagecolor="#ffffff"
     bordercolor="#666666"
     borderopacity="1"
     objecttolerance="10"
     gridtolerance="10"
     guidetolerance="10"
     inkscape:pageopacity="0"
     inkscape:pageshadow="2"
     inkscape:window-width="1294"
     inkscape:window-height="891"
     id="namedview69"
     showgrid="false"
     inkscape:zoom="9.8333333"
     inkscape:cx="4.3220339"
     inkscape:cy="12"
     inkscape:window-x="0"
     inkscape:window-y="360"
     inkscape:window-maximized="0"
     inkscape:current-layer="Capa_1" /><g
     id="g3"
     style="fill:#6d6d6d;fill-opacity:1;stroke:#6d6d6d;stroke-width:31.48766791;stroke-miterlimit:4;stroke-dasharray:none;stroke-opacity:1"
     transform="matrix(0.79499405,0,0,0.91299193,67.912507,29.21774)"><g
       id="g5"
       style="fill:#6d6d6d;fill-opacity:1;stroke:#6d6d6d;stroke-width:31.48766791;stroke-miterlimit:4;stroke-dasharray:none;stroke-opacity:1"><g
         id="group-26svg"
         style="fill:#6d6d6d;fill-opacity:1;stroke:#6d6d6d;stroke-width:31.48766791;stroke-miterlimit:4;stroke-dasharray:none;stroke-opacity:1"><path
           id="path-1_18_"
           d="M 361.684,612 C 308.04,612 170.866,581.832 170.866,444.078 l 0,-163.838 -22.945,0 c -1.352,0 -3.216,0.271 -5.253,0.512 -3.592,0.425 -5.582,0.898 -9.521,0.898 -21.65,0 -20.221,-16.542 -20.221,-18.425 l 0,-81.639 c 0,-15.055 15.393,-25.079 21.506,-27.416 C 154.962,146.483 233.24,90.232 233.24,31.123 233.239,16.436 243.823,0 259.361,0 l 91.209,0 c 5.195,0 9.985,2.038 13.471,5.755 6.77,7.194 8.228,17.334 7.735,25.475 -0.077,1.419 1.883,2.743 1.883,3.863 l 0,90.533 78.239,0 c 16.484,0 27.986,18.184 27.986,36.203 l 0,101.396 c 0,18.223 -17.45,18.425 -18.107,18.425 -2.598,0 -5.745,-0.618 -7.146,-1.023 -0.956,-0.28 -2.376,-0.387 -2.733,-0.387 l -78.239,0 0,152.134 c 0,3.244 4.51,24.064 28.314,24.064 8.497,0 22.606,-2.317 35.778,-7.406 7.29,-2.714 14.195,-2.328 20.752,0.733 6.538,3.013 11.482,8.739 13.896,15.673 2.201,6.297 5.727,18.339 9.976,32.293 l 1.844,6.306 c 4.78,15.74 9.687,32.012 13.414,42.866 3.621,10.623 0.502,22.81 -9.271,30.352 C 443.314,612 382.128,612 361.684,612 Z m -213.763,-360.749 33.307,0 c 7.996,0 18.608,6.489 18.608,14.495 l 0,178.333 c 0,113.97 116.259,138.933 161.848,138.933 17.991,0 71.654,0 108.881,-28.643 -3.775,-11.221 -9.02,-26.808 -13.616,-41.9 l -2.183,-6.307 c -3.602,-11.878 -7.146,-23.147 -9.251,-29.424 -14.398,5.312 -30.042,8.691 -43.484,8.691 -45.126,0 -57.342,-40.568 -57.342,-52.041 l 0,-167.642 c 0,-8.005 2.365,-14.495 10.361,-14.495 l 95.863,0 0,-89.422 c 0,-2.308 -4.5,-5.06 -4.992,-7.213 l -90.871,0 c -7.996,0 -10.361,-6.489 -10.361,-14.495 l 0,-105.028 c 0,-1.622 -1.961,-3.554 -1.835,-5.61 0,-0.155 -2.038,-0.319 -2.028,-0.493 l -78.857,0 c -0.405,0.724 -0.753,1.632 -0.792,2.192 0,78.114 -92.387,141.086 -116.529,150.115 -1.13,0.435 -2.752,1.97 -2.752,3.245 l 0,67.598 c 0,-0.058 -1.052,-0.116 -0.569,-0.174 3.36,-0.397 4.383,-0.715 6.594,-0.715 z"
           style="fill:#6d6d6d;fill-opacity:1;stroke:#6d6d6d;stroke-width:31.48766791;stroke-miterlimit:4;stroke-dasharray:none;stroke-opacity:1"
           inkscape:connector-curvature="0" /></g></g><g
       id="g9"
       style="fill:#6d6d6d;fill-opacity:1;stroke:#6d6d6d;stroke-width:31.48766791;stroke-miterlimit:4;stroke-dasharray:none;stroke-opacity:1" /><g
       id="g11"
       style="fill:#6d6d6d;fill-opacity:1;stroke:#6d6d6d;stroke-width:31.48766791;stroke-miterlimit:4;stroke-dasharray:none;stroke-opacity:1" /><g
       id="g13"
       style="fill:#6d6d6d;fill-opacity:1;stroke:#6d6d6d;stroke-width:31.48766791;stroke-miterlimit:4;stroke-dasharray:none;stroke-opacity:1" /><g
       id="g15"
       style="fill:#6d6d6d;fill-opacity:1;stroke:#6d6d6d;stroke-width:31.48766791;stroke-miterlimit:4;stroke-dasharray:none;stroke-opacity:1" /><g
       id="g17"
       style="fill:#6d6d6d;fill-opacity:1;stroke:#6d6d6d;stroke-width:31.48766791;stroke-miterlimit:4;stroke-dasharray:none;stroke-opacity:1" /><g
       id="g19"
       style="fill:#6d6d6d;fill-opacity:1;stroke:#6d6d6d;stroke-width:31.48766791;stroke-miterlimit:4;stroke-dasharray:none;stroke-opacity:1" /><g
       id="g21"
       style="fill:#6d6d6d;fill-opacity:1;stroke:#6d6d6d;stroke-width:31.48766791;stroke-miterlimit:4;stroke-dasharray:none;stroke-opacity:1" /><g
       id="g23"
       style="fill:#6d6d6d;fill-opacity:1;stroke:#6d6d6d;stroke-width:31.48766791;stroke-miterlimit:4;stroke-dasharray:none;stroke-opacity:1" /><g
       id="g25"
       style="fill:#6d6d6d;fill-opacity:1;stroke:#6d6d6d;stroke-width:31.48766791;stroke-miterlimit:4;stroke-dasharray:none;stroke-opacity:1" /><g
       id="g27"
       style="fill:#6d6d6d;fill-opacity:1;stroke:#6d6d6d;stroke-width:31.48766791;stroke-miterlimit:4;stroke-dasharray:none;stroke-opacity:1" /><g
       id="g29"
       style="fill:#6d6d6d;fill-opacity:1;stroke:#6d6d6d;stroke-width:31.48766791;stroke-miterlimit:4;stroke-dasharray:none;stroke-opacity:1" /><g
       id="g31"
       style="fill:#6d6d6d;fill-opacity:1;stroke:#6d6d6d;stroke-width:31.48766791;stroke-miterlimit:4;stroke-dasharray:none;stroke-opacity:1" /><g
       id="g33"
       style="fill:#6d6d6d;fill-opacity:1;stroke:#6d6d6d;stroke-width:31.48766791;stroke-miterlimit:4;stroke-dasharray:none;stroke-opacity:1" /><g
       id="g35"
       style="fill:#6d6d6d;fill-opacity:1;stroke:#6d6d6d;stroke-width:31.48766791;stroke-miterlimit:4;stroke-dasharray:none;stroke-opacity:1" /><g
       id="g37"
       style="fill:#6d6d6d;fill-opacity:1;stroke:#6d6d6d;stroke-width:31.48766791;stroke-miterlimit:4;stroke-dasharray:none;stroke-opacity:1" /></g><g
     id="g39" /><g
     id="g41" /><g
     id="g43" /><g
     id="g45" /><g
     id="g47" /><g
     id="g49" /><g
     id="g51" /><g
     id="g53" /><g
     id="g55" /><g
     id="g57" /><g
     id="g59" /><g
     id="g61" /><g
     id="g63" /><g
     id="g65" /><g
     id="g67" /></svg>