<svg id="svg2" xmlns="http://www.w3.org/2000/svg" viewBox="79 0 35 30"><defs><style>.cls-1{fill:#fff;}.cls-2{fill:none;}</style></defs><title>horseshoe-white 2</title><g id="layer1"><path class="cls-1" d="M23,2C21.11-.22,17.93.52,20.54,3.92c.3.58,1,2.16,1,2.16,1.25,3.53,2.75,18.58-7.74,18.43C3.93,24.37,4.92,10.4,6.09,6.11a16,16,0,0,1,1-2.23C9.66.51,6.52-.21,4.64,2-.81,9-.81,29.56,13.78,29.88,26.73,30.2,29.28,10.61,23,2ZM3.19,13.31V12.4A.35.35,0,0,1,3.52,12a.35.35,0,0,1,.33.36v.91a.34.34,0,1,1-.67,0ZM4,18.79H4a.34.34,0,0,1-.33-.29l-.19-.89a.35.35,0,0,1,.28-.4h0a.35.35,0,0,1,.38.3l.13.9A.34.34,0,0,1,4,18.79Zm1.75,3.55a.34.34,0,0,1-.16,0,.34.34,0,0,1-.3-.18l-.43-.81a.37.37,0,0,1,0-.28A.32.32,0,0,1,5,20.88a.31.31,0,0,1,.25,0,.37.37,0,0,1,.22.18l.43.81a.34.34,0,0,1-.15.46h0Zm2.42,2.92a.34.34,0,0,1-.24.1.33.33,0,0,1-.24-.1l-.62-.65A.37.37,0,0,1,7,24.35a.32.32,0,0,1,.1-.23.35.35,0,0,1,.49,0l.64.65a.33.33,0,0,1,0,.49Zm12.73-.65-.63.65a.32.32,0,0,1-.24.1.33.33,0,0,1-.23-.1.34.34,0,0,1,0-.47l.63-.65a.37.37,0,0,1,.26-.11h0a.32.32,0,0,1,.23.09A.35.35,0,0,1,20.92,24.61Zm2.16-3.22-.42.81a.33.33,0,0,1-.2.17h-.1a.33.33,0,0,1-.16,0,.34.34,0,0,1-.14-.45l.42-.81a.37.37,0,0,1,.21-.18.32.32,0,0,1,.25,0h0a.34.34,0,0,1,.14.46Zm1.22-2.88a.33.33,0,0,1-.33.29h0a.34.34,0,0,1-.28-.38l.13-.91a.35.35,0,0,1,.38-.31h0a.34.34,0,0,1,.28.39h0Zm.11-4.9a.33.33,0,0,1-.33-.33v-.91a.33.33,0,0,1,.66,0h0v.91A.33.33,0,0,1,24.41,13.61Z" transform="translate(83.38 -0.73)"/><rect id="rect5513" class="cls-2" y="73.83" width="30" height="30"/></g></svg>