<?xml version="1.0" encoding="utf-8"?>
<!-- Generator: Adobe Illustrator 16.0.0, SVG Export Plug-In . SVG Version: 6.00 Build 0)  -->
<!DOCTYPE svg PUBLIC "-//W3C//DTD SVG 1.1//EN" "http://www.w3.org/Graphics/SVG/1.1/DTD/svg11.dtd">
<svg version="1.1" id="Layer_1" xmlns="http://www.w3.org/2000/svg" xmlns:xlink="http://www.w3.org/1999/xlink" x="0px" y="0px"
	 width="30px" height="30px" viewBox="0 0 30 30" enable-background="new 0 0 30 30" xml:space="preserve">
<g>
	<path fill="#282828" d="M20.012,28.3c-0.059-0.01-0.121-0.015-0.141,0.062c-0.023,0.094-0.049,0.189-0.059,0.285
		s0.082,0.072,0.133,0.091c0.05,0.019,0.088,0.001,0.097-0.056c0.015-0.092,0.028-0.184,0.042-0.275
		C20.094,28.348,20.07,28.309,20.012,28.3z"/>
	<path fill="#282828" d="M19.912,26.371c-0.062,0.014-0.1,0.062-0.09,0.129c0.014,0.087,0.034,0.174,0.058,0.258
		c0.019,0.07,0.075,0.063,0.13,0.049c0.054-0.015,0.105-0.03,0.092-0.105c-0.021-0.08-0.041-0.162-0.062-0.243
		C20.022,26.391,19.977,26.357,19.912,26.371z"/>
	<path fill="#282828" d="M9.911,26.252c-0.059-0.004-0.085,0.062-0.096,0.113c-0.017,0.081-0.021,0.166-0.031,0.249
		C9.786,26.705,9.88,26.779,10,26.787c0.098,0.008,0.081-0.074,0.098-0.127c0.014-0.043,0.031-0.086,0.033-0.129
		c0.004-0.08,0.025-0.176-0.009-0.24C10.088,26.229,9.982,26.258,9.911,26.252z"/>
	<path fill="#282828" d="M10.002,28.229c-0.006-0.04-0.019-0.063-0.067-0.062c-0.122,0.002-0.185,0.063-0.182,0.187
		c-0.004,0.076,0.018,0.148,0.042,0.221c0.032,0.095,0.112,0.111,0.195,0.096c0.087-0.016,0.067-0.094,0.06-0.152
		C10.039,28.422,10.018,28.326,10.002,28.229z"/>
	<path fill="#282828" d="M30,15c0-8.284-6.716-15-15-15S0,6.716,0,15c0,6.084,3.624,11.317,8.829,13.671
		c-0.029-0.239-0.043-0.481-0.033-0.728c-0.005-0.59,0.061-1.174,0.152-1.758c0.099-0.632,0.318-1.229,0.571-1.809
		c0.146-0.336,0.358-0.643,0.544-0.96c0.292-0.495,0.687-0.913,1.031-1.368c0.226-0.299,0.513-0.529,0.802-0.752
		c0.215-0.166,0.467-0.291,0.75-0.32c0.434-0.043,0.77,0.342,0.703,0.771c-0.055,0.352-0.178,0.679-0.312,1
		c-0.119,0.284-0.294,0.546-0.443,0.817c-0.075,0.137-0.148,0.273-0.241,0.398c-0.369,0.504-0.576,1.088-0.804,1.659
		c-0.339,0.851-0.412,1.747-0.39,2.651c0.007,0.293,0.103,0.578,0.203,0.852c0.06,0.161,0.131,0.318,0.203,0.476
		C12.669,29.859,13.818,30,15,30c1.168,0,2.303-0.138,3.393-0.391c0.187-0.477,0.258-0.982,0.359-1.48
		c0.023-0.115,0.006-0.238,0.009-0.358c0.009-0.403,0.024-0.807-0.044-1.206c-0.059-0.337-0.153-0.666-0.244-0.994
		c-0.069-0.248-0.133-0.499-0.227-0.738c-0.082-0.209-0.198-0.404-0.303-0.605c-0.217-0.417-0.477-0.811-0.703-1.223
		c-0.236-0.433-0.436-0.891-0.435-1.395c0.001-0.349,0.167-0.669,0.595-0.668c0.352,0.002,0.66,0.096,0.947,0.318
		c0.479,0.369,0.842,0.83,1.186,1.318c0.36,0.514,0.671,1.055,0.938,1.621c0.258,0.547,0.434,1.125,0.561,1.716
		c0.191,0.892,0.228,1.79,0.105,2.696c-0.004,0.027-0.01,0.055-0.014,0.082C26.354,26.35,30,21.103,30,15z M14.998,21.219L11.308,13
		h-0.141l0.141,0.128l-0.044-0.032l3.734-8.155l3.734,8.098L18.709,13h0.035l-0.035,0.042L14.998,21.219z"/>
	<polygon fill="#F2F2F2" points="18.709,13.211 18.709,13.212 18.744,13.211 	"/>
	<polygon fill="#F2F2F2" points="11.167,13.259 11.308,13.259 11.308,13.258 	"/>
</g>
</svg>
