<?xml version="1.0" encoding="utf-8"?>
<!-- Generator: Adobe Illustrator 19.0.1, SVG Export Plug-In . SVG Version: 6.00 Build 0)  -->
<svg version="1.1" id="Layer_1" xmlns="http://www.w3.org/2000/svg" xmlns:xlink="http://www.w3.org/1999/xlink" x="0px" y="0px"
	 viewBox="0 0 612 792" style="enable-background:new 0 0 612 792;" xml:space="preserve">
<style type="text/css">
	.st0{fill:#FFFFFF;}
</style>
<g id="XMLID_1_">
	<path id="XMLID_8_" class="st0" d="M378,587.1c-0.8-0.1-1.7-0.2-2,0.9c-0.3,1.4-0.7,2.7-0.8,4.1c-0.1,1.4,1.2,1,1.9,1.3
		c0.7,0.3,1.3,0,1.4-0.8c0.2-1.3,0.4-2.6,0.6-4C379.2,587.8,378.8,587.2,378,587.1z"/>
	<path id="XMLID_7_" class="st0" d="M376.6,559.4c-0.9,0.2-1.4,0.9-1.3,1.9c0.2,1.2,0.5,2.5,0.8,3.7c0.3,1,1.1,0.9,1.9,0.7
		c0.8-0.2,1.5-0.4,1.3-1.5c-0.3-1.1-0.6-2.3-0.9-3.5C378.1,559.7,377.5,559.2,376.6,559.4z"/>
	<path id="XMLID_6_" class="st0" d="M232.9,557.7c-0.8-0.1-1.2,0.9-1.4,1.6c-0.2,1.2-0.3,2.4-0.4,3.6c0,1.3,1.4,2.4,3.1,2.5
		c1.4,0.1,1.2-1.1,1.4-1.8c0.2-0.6,0.4-1.2,0.5-1.9c0.1-1.1,0.4-2.5-0.1-3.4C235.4,557.3,233.9,557.7,232.9,557.7z"/>
	<path id="XMLID_5_" class="st0" d="M234.2,586.1c-0.1-0.6-0.3-0.9-1-0.9c-1.8,0-2.7,0.9-2.6,2.7c-0.1,1.1,0.3,2.1,0.6,3.2
		c0.5,1.4,1.6,1.6,2.8,1.4c1.2-0.2,1-1.4,0.9-2.2C234.7,588.8,234.4,587.5,234.2,586.1z"/>
	<path class="st0" d="M521.5,396c0-119-96.5-215.5-215.5-215.5S90.5,277,90.5,396c0,87.4,52.1,162.6,126.8,196.4
		c-0.4-3.4-0.6-6.9-0.5-10.5c-0.1-8.5,0.9-16.9,2.2-25.3c1.4-9.1,4.6-17.7,8.2-26c2.1-4.8,5.1-9.2,7.8-13.8
		c4.2-7.1,9.9-13.1,14.8-19.7c3.2-4.3,7.4-7.6,11.5-10.8c3.1-2.4,6.7-4.2,10.8-4.6c6.2-0.6,11.1,4.9,10.1,11.1
		c-0.8,5.1-2.6,9.8-4.5,14.4c-1.7,4.1-4.2,7.8-6.4,11.7c-1.1,2-2.1,3.9-3.5,5.7c-5.3,7.2-8.3,15.6-11.6,23.8
		c-4.9,12.2-5.9,25.1-5.6,38.1c0.1,4.2,1.5,8.3,2.9,12.2c0.9,2.3,1.9,4.6,2.9,6.8c15.9,3.7,32.4,5.7,49.3,5.7
		c16.8,0,33.1-2,48.7-5.6c2.7-6.9,3.7-14.1,5.2-21.3c0.3-1.7,0.1-3.4,0.1-5.1c0.1-5.8,0.3-11.6-0.6-17.3c-0.8-4.8-2.2-9.6-3.5-14.3
		c-1-3.6-1.9-7.2-3.3-10.6c-1.2-3-2.8-5.8-4.4-8.7c-3.1-6-6.9-11.7-10.1-17.6c-3.4-6.2-6.3-12.8-6.2-20c0-5,2.4-9.6,8.5-9.6
		c5.1,0,9.5,1.4,13.6,4.6c6.9,5.3,12.1,11.9,17,18.9c5.2,7.4,9.6,15.2,13.5,23.3c3.7,7.9,6.2,16.2,8.1,24.7
		c2.7,12.8,3.3,25.7,1.5,38.7c-0.1,0.4-0.1,0.8-0.2,1.2C469.1,559.1,521.5,483.7,521.5,396z M306,485.3l-53-118.1h-2l2,1.8l-0.6-0.5
		L306,251.5l53.6,116.3l-0.3-0.6h0.5l-0.5,0.6L306,485.3z"/>
	<polygon id="XMLID_2_" class="st0" points="359.3,370.3 359.3,370.3 359.8,370.3 	"/>
	<polygon id="XMLID_9_" class="st0" points="250.9,371 253,371 253,371 	"/>
</g>
</svg>
